<?xml version="1.0" standalone="no"?>
<!DOCTYPE svg PUBLIC "-//W3C//DTD SVG 20010904//EN"
 "http://www.w3.org/TR/2001/REC-SVG-20010904/DTD/svg10.dtd">
<svg version="1.0" xmlns="http://www.w3.org/2000/svg"
 width="1024.000000pt" height="1024.000000pt" viewBox="0 0 1024.000000 1024.000000"
 preserveAspectRatio="xMidYMid meet">

<g transform="translate(0.000000,1024.000000) scale(0.100000,-0.100000)"
fill="#000000" stroke="none">
<path d="M4344 9520 c-259 -16 -412 -47 -510 -105 -57 -34 -71 -62 -56 -114 7
-21 12 -51 12 -67 0 -29 -1 -30 -81 -42 -109 -17 -227 -57 -397 -135 -167 -76
-247 -126 -319 -199 -59 -60 -87 -117 -78 -157 3 -15 35 -56 71 -92 36 -35 74
-76 85 -91 l19 -26 -63 -84 c-134 -178 -208 -341 -243 -538 -16 -86 -19 -152
-18 -360 1 -262 13 -420 44 -572 l17 -88 -36 0 c-20 0 -62 -7 -94 -15 -185
-48 -279 -218 -278 -505 0 -176 32 -333 118 -575 137 -389 289 -555 511 -559
64 -1 73 -3 77 -21 54 -266 87 -385 143 -515 48 -115 85 -177 219 -367 62 -90
116 -169 119 -176 3 -8 -9 -18 -31 -25 -45 -17 -135 -99 -175 -162 -55 -85
-79 -173 -95 -346 -9 -95 -21 -167 -29 -180 -24 -36 -108 -83 -294 -164 -420
-183 -934 -465 -1147 -629 -248 -190 -449 -428 -584 -691 -79 -155 -109 -234
-150 -398 -36 -139 -98 -471 -106 -562 -10 -109 30 -160 126 -160 34 0 49 5
53 16 3 9 13 70 22 137 74 573 197 905 449 1207 162 195 367 355 660 517 116
64 804 411 866 436 l36 15 6 -122 c4 -94 10 -137 30 -195 54 -155 178 -319
367 -489 183 -164 336 -253 595 -347 249 -90 382 -110 730 -110 280 0 333 6
577 66 434 106 927 409 1228 754 200 229 339 465 374 636 6 32 14 60 17 63 3
3 41 -9 85 -28 43 -19 223 -93 399 -166 464 -192 708 -316 927 -473 448 -320
679 -719 777 -1337 11 -69 27 -190 36 -270 21 -192 35 -282 47 -297 13 -16 55
-17 96 -2 70 24 83 99 57 330 -60 543 -167 886 -379 1209 -267 407 -656 685
-1361 970 -291 119 -605 256 -690 303 -77 43 -115 103 -139 219 -10 46 -27
119 -38 163 -51 210 -166 348 -375 453 l-62 32 33 67 c67 138 127 318 186 560
l22 92 47 -6 c58 -7 159 18 221 54 179 104 324 392 396 788 24 127 29 395 10
484 -32 151 -104 260 -198 301 -44 19 -65 22 -145 18 -51 -2 -93 -1 -93 2 0 3
9 73 20 155 45 349 49 669 9 823 -47 185 -164 353 -327 469 -34 25 -64 55 -67
66 -3 12 -12 54 -19 92 -25 118 -70 220 -141 315 -85 116 -291 291 -470 400
-162 100 -438 212 -645 264 -302 74 -676 107 -1006 86z m1226 -1185 c290 -49
510 -143 656 -278 141 -131 189 -219 233 -427 67 -319 151 -752 166 -865 9
-66 19 -124 23 -129 3 -6 -3 -6 -14 -2 -10 4 -42 10 -71 13 -46 5 -57 11 -108
63 -46 46 -55 61 -48 75 40 71 -106 193 -287 240 -38 9 -124 19 -205 22 -236
9 -373 -30 -494 -143 -59 -54 -72 -80 -61 -122 4 -20 -10 -39 -76 -109 l-81
-85 -44 15 c-123 42 -293 44 -400 5 l-66 -24 -85 90 c-68 73 -83 94 -75 107
48 76 -160 232 -345 259 -122 18 -350 8 -448 -20 -206 -59 -336 -173 -275
-240 14 -15 10 -22 -46 -73 -42 -39 -69 -57 -88 -57 -14 0 -51 -7 -81 -15 -34
-9 -58 -11 -64 -5 -21 21 80 728 135 950 42 171 88 279 153 364 62 81 128 135
207 170 79 35 346 113 463 135 173 34 549 78 881 105 110 9 453 -3 545 -19z
m-1375 -1579 c103 -33 190 -84 264 -158 103 -101 138 -205 128 -373 -7 -117
-26 -176 -85 -266 -143 -219 -399 -318 -648 -249 -209 57 -363 200 -418 388
-65 225 8 480 168 583 162 106 400 136 591 75z m1882 8 c86 -22 197 -78 246
-123 110 -102 160 -289 126 -477 -16 -92 -89 -231 -158 -301 -132 -133 -359
-205 -531 -169 -109 23 -223 82 -292 153 -126 128 -166 213 -175 373 -8 150
29 265 121 367 83 92 237 172 367 192 78 12 221 5 296 -15z m-3200 -151 c7
-10 38 -66 68 -124 30 -59 66 -116 81 -128 57 -45 128 -15 154 64 16 49 17 50
69 59 28 5 53 7 56 5 2 -3 -7 -53 -21 -112 -21 -93 -23 -116 -14 -166 54 -298
187 -496 405 -600 192 -93 382 -101 595 -27 126 44 257 148 333 264 102 156
156 397 122 542 -6 23 -1 27 57 50 82 33 231 35 321 6 65 -21 74 -30 55 -53
-31 -38 1 -299 54 -430 88 -218 291 -376 539 -419 80 -14 108 -15 187 -4 194
25 314 81 443 209 74 74 93 100 131 181 74 156 106 334 81 459 -19 100 -18
103 20 99 28 -3 34 -8 47 -49 8 -26 21 -54 29 -63 21 -25 80 -37 123 -25 36 9
41 16 86 112 27 56 61 117 77 136 28 32 30 33 93 29 57 -4 68 -8 93 -36 63
-70 84 -256 55 -495 -23 -188 -47 -271 -115 -412 -90 -183 -160 -250 -276
-262 -47 -5 -61 -3 -85 15 -58 44 -106 38 -135 -17 -8 -16 -34 -114 -59 -217
-134 -574 -302 -870 -678 -1201 -127 -112 -230 -183 -343 -238 -231 -111 -478
-159 -695 -135 -425 47 -817 277 -1096 645 -71 94 -187 267 -232 345 -72 129
-128 308 -183 594 -33 174 -52 231 -80 246 -27 15 -35 13 -75 -22 -35 -31 -42
-33 -110 -33 -64 0 -77 3 -116 30 -56 40 -138 154 -177 249 -39 94 -96 301
-117 424 -12 67 -15 135 -12 240 4 129 7 153 28 196 31 64 68 86 144 86 44 0
62 -4 73 -17z m3626 -2315 c68 -37 174 -137 211 -201 15 -26 35 -92 51 -170
33 -163 63 -254 121 -369 44 -88 46 -96 42 -158 -12 -162 -190 -460 -403 -675
-327 -329 -777 -556 -1270 -641 -127 -21 -448 -30 -571 -15 -465 57 -869 263
-1111 566 -109 137 -139 192 -158 296 -19 104 -13 160 36 363 17 67 41 193 55
281 33 216 47 257 109 320 57 58 109 85 128 66 8 -8 14 -70 18 -179 7 -190 21
-257 79 -377 81 -165 210 -298 389 -397 199 -110 367 -156 601 -165 242 -8
406 27 658 141 241 110 418 225 581 381 270 258 325 390 347 828 4 79 11 137
16 137 6 0 38 -15 71 -32z m-312 -361 c-20 -168 -75 -263 -260 -447 -233 -233
-489 -370 -823 -441 -153 -33 -418 -33 -538 -1 -100 27 -206 75 -287 130 -115
78 -246 242 -287 360 -12 33 -36 203 -36 253 0 4 60 -31 133 -78 150 -99 260
-150 427 -198 188 -54 299 -68 474 -62 315 12 609 111 838 282 46 35 147 124
224 198 157 152 153 152 135 4z"/>
<path d="M3958 6500 c-128 -68 -154 -244 -48 -333 33 -28 87 -47 135 -47 51 0
129 43 156 86 58 93 10 246 -93 300 -38 20 -106 17 -150 -6z"/>
<path d="M5775 6501 c-123 -77 -148 -191 -67 -313 30 -46 76 -68 139 -68 97 1
172 59 192 152 18 80 -28 183 -103 229 -41 25 -121 25 -161 0z"/>
<path d="M4094 4945 c-49 -49 -29 -101 116 -307 131 -186 274 -300 449 -358
235 -79 492 -56 688 61 127 77 273 227 393 407 60 88 71 133 43 170 -27 36
-55 38 -145 8 -96 -31 -284 -62 -457 -76 -349 -26 -690 4 -910 82 -126 44
-144 45 -177 13z m381 -220 c315 -52 590 -57 900 -15 205 27 196 29 133 -36
-101 -107 -240 -200 -353 -236 -132 -42 -342 -33 -491 23 -84 32 -202 114
-286 201 -77 78 -95 107 -60 93 9 -3 80 -17 157 -30z"/>
<path d="M1998 823 c34 -2 90 -2 125 0 34 2 6 3 -63 3 -69 0 -97 -1 -62 -3z"/>
<path d="M7748 823 c39 -2 105 -2 145 0 39 1 7 3 -73 3 -80 0 -112 -2 -72 -3z"/>
</g>
</svg>
